# xmcd
#
# Track frame offsets: 
#        150
#        32092
#        60970
#        79560
#        94495
#        110928
#        127426
#        149445
#        167249
#        182779
#        198160
#        226809
#        244305
#        261378
#        275956
#        299751
#        321928
#
# Disc length: 4594 seconds
#
# Revision: 0
# Processed by: cddbd v1.5.2PL0 Copyright (c) Steve Scherf et al.
# Submitted via: ExactAudioCopy v0.95b4
#
DISCID=1611f011
DTITLE=Dr John the Night Tripper and the Rampart Street Sympathy Orchest
DTITLE=ra - Dr John at Ultrasonic Studios, Hempsted, NY
DYEAR=1973
DGENRE=New Orleans
TTITLE0=Loop Garu
TTITLE1=Walk on Guilded Splinters
TTITLE2=Danse Kalinda Da Boom
TTITLE3=Stag-O-Lee
TTITLE4=Travelin' Mood
TTITLE5=Hard Sentance
TTITLE6=Life
TTITLE7=Put a Little Love in Your Heart
TTITLE8=Tipitina
TTITLE9=Mess Around
TTITLE10=I've Been Hoodoo'd
TTITLE11=Such a Night
TTITLE12=Right Place, Wrong Time
TTITLE13=C'mon Baby Let the Good Times Roll
TTITLE14=Wang Dang Doodle
TTITLE15=Mama Roux
TTITLE16=Qualified
EXTD=
EXTT0=
EXTT1=
EXTT2=
EXTT3=
EXTT4=
EXTT5=
EXTT6=
EXTT7=
EXTT8=
EXTT9=
EXTT10=
EXTT11=
EXTT12=
EXTT13=
EXTT14=
EXTT15=
EXTT16=
PLAYORDER=
